<svg xmlns="http://www.w3.org/2000/svg">
    <symbol id="email-ico" viewBox="0 0 512 512">
        <path d="M255.999 271.995c-2.662 0-5.322-.663-7.727-1.99L42.791 156.675c-7.738-4.268-10.551-14-6.283-21.737 4.268-7.738 14.001-10.55 21.737-6.283l197.754 109.068 197.758-109.068c7.739-4.266 17.47-1.454 21.737 6.283 4.268 7.738 1.455 17.47-6.283 21.737l-205.485 113.33a15.985 15.985 0 0 1-7.727 1.99z"/>
        <path d="M381.624 443.695H130.373c-56.159 0-101.848-45.689-101.848-101.85v-171.69c0-56.16 45.688-101.85 101.848-101.85h251.251c56.161 0 101.851 45.69 101.851 101.85v171.69c0 56.16-45.69 101.85-101.851 101.85zm-251.251-343.39c-38.514 0-69.848 31.334-69.848 69.85v171.69c0 38.515 31.333 69.85 69.848 69.85h251.251c38.516 0 69.851-31.334 69.851-69.85v-171.69c0-38.516-31.335-69.85-69.851-69.85z"/>
    </symbol>
</svg>